<svg width="34" height="34" viewBox="0 0 34 34" fill="none" xmlns="http://www.w3.org/2000/svg">
<path d="M16.9999 33.6667C14.6574 33.6667 12.4723 33.2385 10.4445 32.3821C8.41673 31.5254 6.65284 30.3471 5.15284 28.8471C3.65284 27.3471 2.4745 25.5832 1.61784 23.5554C0.761447 21.5276 0.333252 19.3425 0.333252 17C0.333252 14.6758 0.761447 12.4999 1.61784 10.4721C2.4745 8.44431 3.65284 6.68042 5.15284 5.18042C6.65284 3.68042 8.41673 2.49764 10.4445 1.63208C12.4723 0.766249 14.6574 0.333333 16.9999 0.333333C18.5555 0.333333 20.0717 0.54625 21.5487 0.972084C23.0253 1.3982 24.4212 2.0232 25.7362 2.84708C26.0787 3.05097 26.2939 3.33806 26.382 3.70833C26.4698 4.07861 26.3934 4.42125 26.1528 4.73625C25.912 5.05097 25.6041 5.23611 25.2291 5.29167C24.8541 5.34722 24.4906 5.27319 24.1387 5.06958C23.0648 4.43069 21.9237 3.94458 20.7153 3.61125C19.507 3.27792 18.2685 3.11125 16.9999 3.11125C13.0833 3.11125 9.78923 4.44681 7.11784 7.11792C4.44672 9.78931 3.11117 13.0833 3.11117 17C3.11117 20.9167 4.44672 24.2107 7.11784 26.8821C9.78923 29.5532 13.0833 30.8888 16.9999 30.8888C20.9166 30.8888 24.2106 29.5532 26.882 26.8821C29.5531 24.2107 30.8887 20.9167 30.8887 17C30.8887 16.5742 30.8726 16.1599 30.8403 15.7571C30.8078 15.3543 30.7499 14.9585 30.6666 14.5696C30.611 14.1713 30.6781 13.7985 30.8678 13.4513C31.0578 13.104 31.3426 12.8888 31.722 12.8054C32.1109 12.7038 32.472 12.7593 32.8053 12.9721C33.1387 13.1851 33.3331 13.4861 33.3887 13.875C33.4814 14.375 33.5509 14.8843 33.597 15.4029C33.6434 15.9213 33.6666 16.4536 33.6666 17C33.6666 19.3425 33.2337 21.5276 32.3678 23.5554C31.5023 25.5832 30.3195 27.3471 28.8195 28.8471C27.3195 30.3471 25.5556 31.5254 23.5278 32.3821C21.5001 33.2385 19.3241 33.6667 16.9999 33.6667ZM14.5833 20.5279L30.6387 4.45833C30.9073 4.18972 31.2384 4.05319 31.632 4.04875C32.0253 4.04403 32.3702 4.18056 32.6666 4.45833C32.9535 4.74528 33.097 5.08792 33.097 5.48625C33.097 5.88431 32.9535 6.22681 32.6666 6.51375L15.5553 23.6388C15.2776 23.9165 14.9535 24.0554 14.5833 24.0554C14.213 24.0554 13.8889 23.9165 13.6112 23.6388L8.63867 18.6388C8.37034 18.3704 8.24075 18.0325 8.24992 17.625C8.25909 17.2175 8.39797 16.8796 8.66659 16.6113C8.9352 16.3426 9.27311 16.2083 9.68034 16.2083C10.0878 16.2083 10.4259 16.3426 10.6945 16.6113L14.5833 20.5279Z" fill="#1C1B1F"/>
</svg>
